<svg viewBox="297.6691 248 454.6618 254" width="5000" height="2793.2850307635254" xmlns="http://www.w3.org/2000/svg" xmlns:xlink="http://www.w3.org/1999/xlink" preserveAspectRatio="none"><defs></defs><style>.aD6z1nYkhcolor {fill:#000000;fill-opacity:1;}.aD6z1nYkhstrokeColor-str {stroke:#3F3F3F;stroke-opacity:1;}.aLgOaV3zRcolors-0 {fill:#000000;fill-opacity:1;}.aLgOaV3zRcolors-1 {fill:#3F3F3F;fill-opacity:1;}.aLgOaV3zRcolors-2 {fill:#797979;fill-opacity:1;}</style><g opacity="1" transform="rotate(0 297.6691 478)">
<svg width="454.6618" height="24" x="297.6691" y="478" version="1.1" preserveAspectRatio="none" viewBox="2.3828 -28.4078 545.5664 28.798500000000004">
  <g transform="matrix(1 0 0 1 0 0)" class="aD6z1nYkhcolor"><path id="id-D6z1nYkh19" d="M30.39-28.01L30.39-2.56Q30.39-2.01 30.20-1.54Q30-1.07 29.65-0.73Q29.30-0.39 28.83-0.20Q28.36 0 27.83 0L27.83 0L16.39 0Q14.77 0 13.11-0.35Q11.45-0.70 9.89-1.44Q8.34-2.17 6.97-3.30Q5.61-4.43 4.58-5.99Q3.55-7.54 2.97-9.54Q2.38-11.54 2.38-14.00L2.38-14.00L2.38-28.01L7.46-28.01L7.46-14.00Q7.46-11.86 8.06-10.37Q8.65-8.89 9.57-7.89Q10.49-6.89 11.58-6.33Q12.68-5.76 13.66-5.49Q14.65-5.21 15.40-5.15Q16.15-5.08 16.39-5.08L16.39-5.08L25.31-5.08L25.31-28.01L30.39-28.01Z M64.28-28.01L64.28-2.17Q64.28-1.62 64.07-1.15Q63.87-0.68 63.53-0.34Q63.18 0 62.71 0.20Q62.25 0.39 61.72 0.39L61.72 0.39Q61.25 0.39 60.77 0.21Q60.29 0.04 59.92-0.35L59.92-0.35L41.37-19.73L41.37 0L36.29 0L36.29-25.84Q36.29-26.62 36.73-27.26Q37.17-27.89 37.85-28.20L37.85-28.20Q38.57-28.50 39.34-28.35Q40.10-28.20 40.64-27.64L40.64-27.64L59.20-8.28L59.20-28.01L64.28-28.01Z M95.90-5.08L95.90 0L72.73 0Q72.19 0 71.72-0.20Q71.25-0.39 70.91-0.73Q70.57-1.07 70.37-1.54Q70.18-2.01 70.18-2.56L70.18-2.56L70.18-28.01L75.25-28.01L75.25-5.08L95.90-5.08Z M104.75-28.01L104.75 0L99.67 0L99.67-28.01L104.75-28.01Z M143.28-25.84L143.28 0L138.16 0L138.16-16.68L129.16-0.84Q128.83-0.23 128.23 0.08Q127.64 0.39 126.95 0.39L126.95 0.39Q126.29 0.39 125.71 0.08Q125.14-0.23 124.80-0.84L124.80-0.84L115.76-16.68L115.76 0L110.68 0L110.68-25.84Q110.68-26.72 111.20-27.40Q111.72-28.09 112.56-28.32L112.56-28.32Q112.97-28.42 113.38-28.39Q113.79-28.36 114.17-28.21Q114.55-28.07 114.86-27.80Q115.18-27.54 115.39-27.17L115.39-27.17L126.95-7.07L138.52-27.17Q138.96-27.91 139.76-28.22Q140.55-28.54 141.41-28.32L141.41-28.32Q142.23-28.09 142.75-27.40Q143.28-26.72 143.28-25.84L143.28-25.84Z M154.30-28.01L154.30 0L149.22 0L149.22-28.01L154.30-28.01Z M185.55-28.01L185.55-22.93L174.36-22.93L174.36 0L169.28 0L169.28-22.93L158.07-22.93L158.07-28.01L185.55-28.01Z M212.30-16.56L212.30-11.45L196.27-11.45L196.27-16.56L212.30-16.56ZM214.59-5.08L214.59 0L196.27 0Q195.21 0 193.96-0.37Q192.71-0.74 191.65-1.59Q190.59-2.44 189.87-3.80Q189.16-5.16 189.16-7.13L189.16-7.13L189.16-25.45Q189.16-25.98 189.36-26.45Q189.55-26.91 189.89-27.27Q190.23-27.62 190.70-27.81Q191.17-28.01 191.72-28.01L191.72-28.01L214.59-28.01L214.59-22.93L194.24-22.93L194.24-7.13Q194.24-6.13 194.77-5.61Q195.29-5.08 196.31-5.08L196.31-5.08L214.59-5.08Z M247.44-16.29L247.44-11.72Q247.44-9.16 246.55-7.01Q245.66-4.86 244.10-3.31Q242.54-1.76 240.39-0.88Q238.24 0 235.72 0L235.72 0L222.01 0Q221.46 0 221.00-0.20Q220.53-0.39 220.19-0.73Q219.84-1.07 219.65-1.54Q219.45-2.01 219.45-2.56L219.45-2.56L219.45-25.45Q219.45-25.98 219.65-26.45Q219.84-26.91 220.19-27.27Q220.53-27.62 221.00-27.81Q221.46-28.01 222.01-28.01L222.01-28.01L235.72-28.01Q238.24-28.01 240.39-27.13Q242.54-26.25 244.10-24.70Q245.66-23.14 246.55-20.99Q247.44-18.83 247.44-16.29L247.44-16.29ZM242.36-11.72L242.36-16.29Q242.36-17.77 241.88-19.00Q241.41-20.23 240.53-21.10Q239.65-21.97 238.43-22.45Q237.21-22.93 235.72-22.93L235.72-22.93L224.53-22.93L224.53-5.08L235.72-5.08Q237.21-5.08 238.43-5.56Q239.65-6.04 240.53-6.90Q241.41-7.77 241.88-8.99Q242.36-10.21 242.36-11.72L242.36-11.72Z M296.04-28.01L301.19-28.01L296.50-1.76Q296.35-0.98 295.80-0.41Q295.25 0.16 294.47 0.31L294.47 0.31Q293.67 0.45 292.96 0.14Q292.25-0.18 291.84-0.84L291.84-0.84L282.54-16.11L273.22-0.84Q272.89-0.27 272.31 0.04Q271.74 0.35 271.07 0.35L271.07 0.35Q270.16 0.35 269.45-0.23Q268.75-0.82 268.59-1.76L268.59-1.76L263.87-28.01L269.02-28.01L272.38-9.51L280.39-22.29Q280.72-22.85 281.30-23.16Q281.88-23.48 282.54-23.48L282.54-23.48Q283.20-23.48 283.77-23.16Q284.34-22.85 284.71-22.29L284.71-22.29L292.68-9.51L296.04-28.01Z M328.55-16.56L328.55-11.45L312.52-11.45L312.52-16.56L328.55-16.56ZM330.84-5.08L330.84 0L312.52 0Q311.46 0 310.21-0.37Q308.96-0.74 307.90-1.59Q306.84-2.44 306.12-3.80Q305.41-5.16 305.41-7.13L305.41-7.13L305.41-25.45Q305.41-25.98 305.61-26.45Q305.80-26.91 306.14-27.27Q306.48-27.62 306.95-27.81Q307.42-28.01 307.97-28.01L307.97-28.01L330.84-28.01L330.84-22.93L310.49-22.93L310.49-7.13Q310.49-6.13 311.02-5.61Q311.54-5.08 312.56-5.08L312.56-5.08L330.84-5.08Z M363.69-7.13L363.69-6.15Q363.69-5.21 363.37-4.14Q363.05-3.07 362.31-2.15Q361.58-1.23 360.41-0.62Q359.24 0 357.54 0L357.54 0L338.26 0Q337.71 0 337.25-0.20Q336.78-0.39 336.44-0.73Q336.09-1.07 335.90-1.54Q335.70-2.01 335.70-2.56L335.70-2.56L335.70-25.45Q335.70-25.98 335.90-26.45Q336.09-26.91 336.44-27.27Q336.78-27.62 337.25-27.81Q337.71-28.01 338.26-28.01L338.26-28.01L355.25-28.01Q356.19-28.01 357.27-27.68Q358.34-27.34 359.27-26.61Q360.20-25.88 360.81-24.71Q361.43-23.54 361.43-21.84L361.43-21.84L361.43-20.88Q361.43-19.53 360.98-17.98Q360.53-16.43 359.53-15.04L359.53-15.04Q360.39-14.51 361.14-13.77Q361.89-13.03 362.46-12.05Q363.03-11.07 363.36-9.84Q363.69-8.61 363.69-7.13L363.69-7.13ZM358.61-6.19L358.61-7.13Q358.61-8.13 358.30-8.92Q357.99-9.71 357.42-10.27Q356.86-10.84 356.05-11.14Q355.25-11.45 354.26-11.45L354.26-11.45L342.81-11.45L342.81-16.56L351.97-16.56Q352.97-16.56 353.77-16.87Q354.57-17.17 355.14-17.73Q355.70-18.30 356.01-19.09Q356.31-19.88 356.31-20.88L356.31-20.88L356.31-21.84Q356.31-22.93 355.25-22.93L355.25-22.93L340.78-22.93L340.78-5.08L357.54-5.08Q357.68-5.08 357.87-5.10Q358.07-5.12 358.22-5.21Q358.38-5.31 358.50-5.55Q358.61-5.78 358.61-6.19L358.61-6.19Z M411.72-28.01L416.88-28.01L412.19-1.76Q412.03-0.98 411.48-0.41Q410.94 0.16 410.16 0.31L410.16 0.31Q409.36 0.45 408.64 0.14Q407.93-0.18 407.52-0.84L407.52-0.84L398.22-16.11L388.91-0.84Q388.57-0.27 388.00 0.04Q387.42 0.35 386.76 0.35L386.76 0.35Q385.84 0.35 385.14-0.23Q384.43-0.82 384.28-1.76L384.28-1.76L379.55-28.01L384.71-28.01L388.07-9.51L396.07-22.29Q396.41-22.85 396.98-23.16Q397.56-23.48 398.22-23.48L398.22-23.48Q398.89-23.48 399.45-23.16Q400.02-22.85 400.39-22.29L400.39-22.29L408.36-9.51L411.72-28.01Z M450.39-16.68L450.39-11.33Q450.39-8.77 449.51-6.62Q448.63-4.47 447.07-2.91Q445.51-1.35 443.37-0.48Q441.23 0.39 438.71 0.39L438.71 0.39L431.84 0.39Q429.32 0.39 427.17-0.48Q425.02-1.35 423.46-2.91Q421.89-4.47 421.01-6.62Q420.12-8.77 420.12-11.33L420.12-11.33L420.12-16.68Q420.12-19.22 421.01-21.38Q421.89-23.54 423.46-25.09Q425.02-26.64 427.17-27.52Q429.32-28.40 431.84-28.40L431.84-28.40L438.71-28.40Q441.23-28.40 443.37-27.52Q445.51-26.64 447.07-25.09Q448.63-23.54 449.51-21.38Q450.39-19.22 450.39-16.68L450.39-16.68ZM445.31-11.33L445.31-16.68Q445.31-18.18 444.83-19.40Q444.36-20.63 443.49-21.49Q442.62-22.36 441.40-22.84Q440.18-23.32 438.71-23.32L438.71-23.32L431.84-23.32Q430.35-23.32 429.13-22.84Q427.91-22.36 427.03-21.49Q426.15-20.63 425.67-19.40Q425.20-18.18 425.20-16.68L425.20-16.68L425.20-11.33Q425.20-9.82 425.67-8.60Q426.15-7.38 427.03-6.51Q427.91-5.64 429.13-5.17Q430.35-4.69 431.84-4.69L431.84-4.69L438.67-4.69Q440.16-4.69 441.38-5.17Q442.60-5.64 443.48-6.51Q444.36-7.38 444.83-8.60Q445.31-9.82 445.31-11.33L445.31-11.33Z M483.40-21.84L483.40-18.59Q483.40-16.86 482.97-15.49Q482.54-14.12 481.81-13.08Q481.07-12.03 480.12-11.29Q479.16-10.55 478.12-10.07Q477.07-9.59 476.01-9.38Q474.94-9.16 474.00-9.16L474.00-9.16L484.61 0L476.76 0L466.17-9.16L462.52-9.16L462.52-14.24L474.00-14.24Q474.96-14.32 475.75-14.64Q476.54-14.96 477.12-15.51Q477.70-16.05 478.01-16.83Q478.32-17.60 478.32-18.59L478.32-18.59L478.32-21.80Q478.32-22.23 478.21-22.45Q478.11-22.68 477.94-22.78Q477.77-22.89 477.59-22.91Q477.40-22.93 477.25-22.93L477.25-22.93L460.49-22.93L460.49 0L455.41 0L455.41-25.45Q455.41-25.98 455.61-26.45Q455.80-26.91 456.14-27.27Q456.48-27.62 456.95-27.81Q457.42-28.01 457.97-28.01L457.97-28.01L477.25-28.01Q478.95-28.01 480.12-27.39Q481.29-26.78 482.02-25.85Q482.75-24.92 483.08-23.85Q483.40-22.77 483.40-21.84L483.40-21.84Z M503.46-14.00L517.85 0L510.64 0L499.22-11.45L495.64-11.45L495.64-16.56L499.22-16.56L510.64-28.01L517.85-28.01L503.46-14.00ZM493.61-28.01L493.61 0L488.54 0L488.54-28.01L493.61-28.01Z M547.95-8.24L547.95-8.24Q547.95-6.74 547.57-5.54Q547.19-4.34 546.56-3.42Q545.94-2.50 545.10-1.86Q544.26-1.21 543.36-0.80Q542.46-0.39 541.53-0.20Q540.61 0 539.79 0L539.79 0L520.20 0L520.20-5.08L539.79-5.08Q541.25-5.08 542.06-5.94Q542.87-6.80 542.87-8.24L542.87-8.24Q542.87-8.95 542.66-9.53Q542.44-10.12 542.04-10.55Q541.64-10.98 541.06-11.21Q540.49-11.45 539.79-11.45L539.79-11.45L528.11-11.45Q526.88-11.45 525.45-11.88Q524.02-12.32 522.80-13.30Q521.58-14.28 520.77-15.86Q519.96-17.44 519.96-19.73L519.96-19.73Q519.96-22.01 520.77-23.58Q521.58-25.16 522.80-26.14Q524.02-27.13 525.45-27.57Q526.88-28.01 528.11-28.01L528.11-28.01L545.39-28.01L545.39-22.93L528.11-22.93Q526.66-22.93 525.85-22.05Q525.04-21.17 525.04-19.73L525.04-19.73Q525.04-18.26 525.85-17.41Q526.66-16.56 528.11-16.56L528.11-16.56L539.79-16.56L539.82-16.56Q540.64-16.54 541.56-16.34Q542.48-16.13 543.39-15.70Q544.30-15.27 545.12-14.62Q545.94-13.96 546.57-13.05Q547.21-12.13 547.58-10.94Q547.95-9.75 547.95-8.24Z"/></g>
</svg>
</g><g opacity="1" transform="rotate(0 456.25 248)">
<svg width="137.5001" height="200" x="456.25" y="248" version="1.1" preserveAspectRatio="none" viewBox="0 0 68.75 100">
  <g transform="matrix(1 0 0 1 0 0)" class="aLgOaV3zRcolors-0"><g><path d="M34.375,0C15.387,0,0,15.387,0,34.375c0,12.598,11.525,25.946,15.723,37.671
		C21.982,89.532,21.288,100,34.375,100c13.281,0,12.391-10.419,18.652-27.881C57.238,60.37,68.75,46.875,68.75,34.375
		C68.75,15.387,53.357,0,34.375,0z M42.475,84.924L26.98,86.859c-0.552-1.6-1.146-3.473-1.868-5.914
		c-0.009-0.031-0.023-0.067-0.029-0.098l19.338-2.418c-0.275,0.922-0.568,1.893-0.824,2.76
		C43.188,82.593,42.822,83.813,42.475,84.924z M24.174,77.838c-0.567-1.88-1.208-3.863-1.921-5.963h24.268
		c-0.385,1.123-0.77,2.246-1.1,3.309L24.174,77.838z M34.375,93.75c-3.166,0-4.622-0.366-6.241-3.906l13.245-1.66
		C39.459,93.354,38.062,93.75,34.375,93.75z M48.975,65.625H19.809c-1.557-3.375-3.424-6.75-5.269-10.053
		c-4.077-7.296-8.29-14.844-8.29-21.197C6.25,18.866,18.866,6.25,34.375,6.25S62.5,18.866,62.5,34.375
		c0,6.307-4.218,13.893-8.301,21.234C52.374,58.898,50.519,62.268,48.975,65.625z"></path><path d="M34.375,15.625c-10.341,0-18.75,8.409-18.75,18.75c0,0.862,0.7,1.562,1.562,1.562s1.562-0.7,1.562-1.562
		c0-8.615,7.01-15.625,15.625-15.625c0.862,0,1.562-0.7,1.562-1.562S35.234,15.625,34.375,15.625z"></path></g></g>
</svg>
</g></svg>